HIERARCHY
ROOT hip
{
  OFFSET 0 0 0
  CHANNELS 6 Xposition Yposition Zposition Zrotation Yrotation Xrotation
  JOINT abdomen
  {
    OFFSET 0 20.6881 -0.73152
    CHANNELS 3 Zrotation Xrotation Yrotation
    JOINT chest
    {
      OFFSET 0 11.7043 -0.48768
      CHANNELS 3 Zrotation Xrotation Yrotation
      JOINT neck
      {
        OFFSET 0 22.1894 -2.19456
        CHANNELS 3 Zrotation Xrotation Yrotation
        JOINT head
        {
          OFFSET -0.24384 7.07133 1.2192
          CHANNELS 3 Zrotation Xrotation Yrotation
          JOINT leftEye
          {
            OFFSET 4.14528 8.04674 8.04672
            CHANNELS 3 Zrotation Xrotation Yrotation
            End Site
            {
              OFFSET 1 0 0
            }
          }
          JOINT rightEye
          {
            OFFSET -3.6576 8.04674 8.04672
            CHANNELS 3 Zrotation Xrotation Yrotation
            End Site
            {
              OFFSET 1 0 0
            }
          }
        }
      }
      JOINT rCollar
      {
        OFFSET -2.68224 19.2634 -4.8768
        CHANNELS 3 Zrotation Xrotation Yrotation
        JOINT rShldr
        {
          OFFSET -8.77824 -1.95073 1.46304
          CHANNELS 3 Zrotation Xrotation Yrotation
          JOINT rForeArm
          {
            OFFSET -28.1742 -1.7115 0.48768
            CHANNELS 3 Zrotation Xrotation Yrotation
            JOINT rHand
            {
              OFFSET -22.5879 0.773209 7.07136
              CHANNELS 3 Zrotation Xrotation Yrotation
              JOINT rThumb1
              {
                OFFSET -1.2192 -0.487915 3.41376
                CHANNELS 3 Zrotation Xrotation Yrotation
                JOINT rThumb2
                {
                  OFFSET -3.37035 -0.52449 3.41376
                  CHANNELS 3 Zrotation Xrotation Yrotation
                  End Site
                  {
                    OFFSET -1.78271 -1.18214 1.43049
                  }
                }
              }
              JOINT rIndex1
              {
                OFFSET -7.75947 0.938293 5.60832
                CHANNELS 3 Zrotation Xrotation Yrotation
                JOINT rIndex2
                {
                  OFFSET -2.54057 -0.884171 1.56538
                  CHANNELS 3 Zrotation Xrotation Yrotation
                  End Site
                  {
                    OFFSET -1.62519 -0.234802 1.16502
                  }
                }
              }
              JOINT rMid1
              {
                OFFSET -8.24714 1.18213 3.41376
                CHANNELS 3 Zrotation Xrotation Yrotation
                JOINT rMid2
                {
                  OFFSET -3.10165 -0.590103 1.0647
                  CHANNELS 3 Zrotation Xrotation Yrotation
                  End Site
                  {
                    OFFSET -2.48547 -0.328903 0.83742
                  }
                }
              }
              JOINT rRing1
              {
                OFFSET -8.82822 0.546677 1.51678
                CHANNELS 3 Zrotation Xrotation Yrotation
                JOINT rRing2
                {
                  OFFSET -2.60934 -0.819778 -0.0198488
                  CHANNELS 3 Zrotation Xrotation Yrotation
                  End Site
                  {
                    OFFSET -2.33842 -0.294052 0.168128
                  }
                }
              }
              JOINT rPinky1
              {
                OFFSET -8.27202 -0.0477905 -0.4584
                CHANNELS 3 Zrotation Xrotation Yrotation
                JOINT rPinky2
                {
                  OFFSET -1.82734 -0.647385 -0.700984
                  CHANNELS 3 Zrotation Xrotation Yrotation
                  End Site
                  {
                    OFFSET -1.69225 -0.51767 -0.607171
                  }
                }
              }
            }
          }
        }
      }
      JOINT lCollar
      {
        OFFSET 2.68224 19.2634 -4.8768
        CHANNELS 3 Zrotation Xrotation Yrotation
        JOINT lShldr
        {
          OFFSET 8.77824 -1.95073 1.46304
          CHANNELS 3 Zrotation Xrotation Yrotation
          JOINT lForeArm
          {
            OFFSET 28.1742 -1.7115 0.48768
            CHANNELS 3 Zrotation Xrotation Yrotation
            JOINT lHand
            {
              OFFSET 22.5879 0.773209 7.07136
              CHANNELS 3 Zrotation Xrotation Yrotation
              JOINT lThumb1
              {
                OFFSET 1.2192 -0.487915 3.41376
                CHANNELS 3 Zrotation Xrotation Yrotation
                JOINT lThumb2
                {
                  OFFSET 3.37035 -0.52449 3.41376
                  CHANNELS 3 Zrotation Xrotation Yrotation
                  End Site
                  {
                    OFFSET 1.78271 -1.18214 1.43049
                  }
                }
              }
              JOINT lIndex1
              {
                OFFSET 7.75947 0.938293 5.60832
                CHANNELS 3 Zrotation Xrotation Yrotation
                JOINT lIndex2
                {
                  OFFSET 2.54057 -0.884171 1.56538
                  CHANNELS 3 Zrotation Xrotation Yrotation
                  End Site
                  {
                    OFFSET 1.62519 -0.234802 1.16502
                  }
                }
              }
              JOINT lMid1
              {
                OFFSET 8.24714 1.18213 3.41376
                CHANNELS 3 Zrotation Xrotation Yrotation
                JOINT lMid2
                {
                  OFFSET 3.10165 -0.590103 1.0647
                  CHANNELS 3 Zrotation Xrotation Yrotation
                  End Site
                  {
                    OFFSET 2.48547 -0.328903 0.83742
                  }
                }
              }
              JOINT lRing1
              {
                OFFSET 8.82822 0.546677 1.51678
                CHANNELS 3 Zrotation Xrotation Yrotation
                JOINT lRing2
                {
                  OFFSET 2.60934 -0.819778 -0.0198488
                  CHANNELS 3 Zrotation Xrotation Yrotation
                  End Site
                  {
                    OFFSET 2.33842 -0.294052 0.168128
                  }
                }
              }
              JOINT lPinky1
              {
                OFFSET 8.27202 -0.0477905 -0.4584
                CHANNELS 3 Zrotation Xrotation Yrotation
                JOINT lPinky2
                {
                  OFFSET 1.82734 -0.647385 -0.700984
                  CHANNELS 3 Zrotation Xrotation Yrotation
                  End Site
                  {
                    OFFSET 1.69225 -0.51767 -0.607171
                  }
                }
              }
            }
          }
        }
      }
    }
  }
  JOINT rButtock
  {
    OFFSET -8.77824 4.35084 1.2192
    CHANNELS 3 Zrotation Xrotation Yrotation
    JOINT rThigh
    {
      OFFSET 0 -1.70687 -2.19456
      CHANNELS 3 Zrotation Xrotation Yrotation
      JOINT rShin
      {
        OFFSET 0 -36.8199 0.73152
        CHANNELS 3 Zrotation Xrotation Yrotation
        JOINT rFoot
        {
          OFFSET 0.73152 -45.1104 -5.12064
          CHANNELS 3 Zrotation Xrotation Yrotation
          End Site
          {
            OFFSET -1.1221 -3.69964 12.103
          }
        }
      }
    }
  }
  JOINT lButtock
  {
    OFFSET 8.77824 4.35084 1.2192
    CHANNELS 3 Zrotation Xrotation Yrotation
    JOINT lThigh
    {
      OFFSET 0 -1.70687 -2.19456
      CHANNELS 3 Zrotation Xrotation Yrotation
      JOINT lShin
      {
        OFFSET 0 -36.8199 0.73152
        CHANNELS 3 Zrotation Xrotation Yrotation
        JOINT lFoot
        {
          OFFSET -0.73152 -45.1104 -5.12064
          CHANNELS 3 Zrotation Xrotation Yrotation
          End Site
          {
            OFFSET 1.1221 -3.69964 12.103
          }
        }
      }
    }
  }
}
MOTION
Frames:	7
Frame Time:	0.00833333
0.0 0.0 0.0 0.0 0.0 0.0 0.0 0.0 0.0 0.0 0.0 0.0 0.0 0.0 0.0 0.0 0.0 0.0 0.0 0.0 0.0 0.0 0.0 0.0 0.0 0.0 0.0 0.0 0.0 0.0 0.0 0.0 0.0 0.0 0.0 0.0 0.0 0.0 0.0 0.0 0.0 0.0 0.0 0.0 0.0 0.0 0.0 0.0 0.0 0.0 0.0 0.0 0.0 0.0 0.0 0.0 0.0 0.0 0.0 0.0 0.0 0.0 0.0 0.0 0.0 0.0 0.0 0.0 0.0 0.0 0.0 0.0 0.0 0.0 0.0 0.0 0.0 0.0 0.0 0.0 0.0 0.0 0.0 0.0 0.0 0.0 0.0 0.0 0.0 0.0 0.0 0.0 0.0 0.0 0.0 0.0 0.0 0.0 0.0 0.0 0.0 0.0 0.0 0.0 0.0 0.0 0.0 0.0 0.0 0.0 0.0 0.0 0.0 0.0 0.0 0.0 0.0 0.0 0.0 0.0 0.0 0.0 0.0 0.0 0.0 0.0 0.0 0.0 0.0 0.0 0.0 0.0
192.962 83.1883 -1.86653 0.0 -0.0 -0.0 -0.0 -4.771896 -180.0 0.0 -4.771896 180.0 -8.06909 8.693804 -71.663951 10.772633 4.942713 71.812002 -0.0 -0.0 0.0 -0.0 -0.0 0.0 -142.973735 39.431617 147.390037 163.420146 -82.940955 137.049105 -1.414799 -31.678017 -3.15836 1.300288 -4.128061 0.188306 -5.433768 5.264911 1.077842 -155.524989 -63.679573 114.464962 -174.907013 -54.112206 119.323705 0.362108 29.972348 7.159697 -169.08961 -33.247392 145.374931 166.820308 -63.940741 129.00976 -145.121957 1.974539 -179.748654 -145.41112 1.915609 -179.09047 -124.851156 -29.038378 -122.621388 -144.577786 10.582428 -143.656534 150.168677 21.535282 -155.275413 -22.981915 -9.132941 -10.866598 -99.862258 72.615006 119.534628 161.637518 52.182847 -136.18236 80.965442 38.736427 -44.498855 14.651028 -8.425676 -30.435184 160.10123 -33.161924 -122.700876 -27.028457 -7.362575 8.825694 160.09819 -4.901163 -142.968881 -5.451842 2.942435 -0.601428 -0.004672 0.917534 -0.288227 16.092922 61.967899 -18.32882 -6.7632 20.646996 -6.029668 -70.123973 85.214168 34.496326 -180.0 75.749642 -0.0 180.0 75.749642 0.0 7.020854 4.02674 75.890629 -3.526001 -31.536837 -87.193359 -180.0 75.749642 -0.0 180.0 75.749642 0.0 -7.020854 4.02674 -75.890629 3.419183 -18.112039 83.042257
193.387 83.2173 -2.23417 0.0 -0.0 -0.0 -0.0 -4.771896 -180.0 0.0 -4.771896 180.0 -7.787251 12.560814 -93.912255 12.009496 8.620009 93.862169 -0.0 -0.0 0.0 -0.0 -0.0 0.0 -155.61387 -4.23638 161.991154 -151.481041 9.080399 160.859717 -87.007306 73.69749 71.775656 52.894323 -66.822141 39.271685 71.831195 -48.263725 25.791675 -82.255245 39.293548 47.89501 -1.161729 1.860943 0.668925 -10.116585 13.256192 2.726676 -0.057679 0.167876 0.032027 91.3556 -78.624526 65.469983 -145.121954 1.975391 -179.748922 -29.037864 87.687572 52.369647 -144.109804 8.78177 -140.874541 -112.64146 -40.509732 -113.538448 155.504155 -3.514523 -161.838528 77.454199 69.071418 -98.123671 -106.585792 -82.009221 -69.248826 -176.141894 0.201153 -145.24031 171.653675 -9.336187 -89.949478 -5.757169 -57.137966 -10.807413 83.732676 42.330462 -69.989987 -6.059271 -0.119711 14.37745 -68.983989 -80.15399 -40.578188 163.873845 -5.289579 -140.122074 -0.004875 1.770451 -0.556181 -0.904417 -26.574411 3.487386 79.554196 -51.374964 77.988404 18.10902 -38.617429 19.347058 -180.0 75.749642 -0.0 180.0 75.749642 0.0 7.051593 4.103085 76.605942 -111.220393 62.462643 40.170256 -180.0 75.749642 -0.0 180.0 75.749642 0.0 -7.051593 4.103085 -76.605942 111.220393 62.462643 -40.170256
193.745 83.1652 -2.58959 0.0 -0.0 -0.0 -0.0 -4.771896 -180.0 0.0 -4.771896 180.0 1.681211 -0.191291 9.638157 -1.625502 0.469952 -9.628684 -0.0 -0.0 0.0 -0.0 -0.0 0.0 -80.1661 68.371792 83.260848 -145.631406 75.541837 165.573677 96.64706 74.063183 -102.122802 -55.118473 70.928598 37.687773 -69.523098 38.077625 36.391367 -18.014868 -3.641501 31.951876 15.558612 -27.950605 -5.75049 117.235702 -56.331833 65.001697 -160.826363 -7.141801 143.31627 5.716535 2.142444 0.612434 -114.669357 66.731663 135.092548 -165.785314 46.510121 -174.882864 0.0 -0.0 0.0 26.247323 75.630464 6.034858 80.1661 68.371792 -83.260848 -16.89865 15.899113 0.048397 -158.54053 43.313977 -175.259256 158.752701 55.45021 -133.973202 -4.417404 -4.400416 0.512247 -13.619163 -24.463329 13.919405 83.732676 42.330462 -69.989987 2.954939 20.529206 10.079894 -68.983989 -80.15399 -40.578188 -88.078872 -75.128048 -59.73913 145.119721 0.310087 179.225753 -21.128969 7.388063 8.167728 -19.44814 67.282501 -13.092074 155.627097 29.706892 143.896622 -180.0 75.749642 -0.0 180.0 75.749642 0.0 7.051593 4.103085 76.605942 -111.220393 62.462643 40.170256 -180.0 75.749642 -0.0 180.0 75.749642 0.0 -7.051593 4.103085 -76.605942 111.220393 62.462643 -40.170256
194.189 83.0718 -2.94999 0.0 -0.0 -0.0 -0.0 -4.771896 -180.0 0.0 -4.771896 180.0 -8.133567 10.422116 -81.502261 11.496437 6.51512 81.58876 0.0 -0.0 -0.0 0.0 -0.0 -0.0 -150.168677 21.535282 155.275413 17.780086 14.090586 12.56256 70.798183 70.354222 -84.692856 -148.538046 63.497892 125.459328 -5.433768 5.264911 1.077842 8.88459 -10.002296 -3.12153 112.65811 -76.285796 61.487487 -20.406164 36.383771 22.574302 -154.142656 11.63468 139.428942 6.058686 0.897563 -0.642864 -145.121954 1.975391 -179.748922 -141.541184 -27.576599 -174.38624 -145.499137 13.103982 -142.110579 -23.6352 -40.561757 -27.43063 155.417258 -2.951435 -161.718542 -19.503551 -3.216578 -15.950818 -8.320339 -2.050056 33.23066 -174.068822 -6.350865 -144.904188 171.653675 -9.336187 -89.949478 -169.126295 -26.316179 -97.661989 155.193415 -24.299992 -122.142835 146.956781 -9.144618 -119.410503 158.521826 -0.192208 -142.144949 151.081975 19.590441 -138.921815 -0.004873 1.771387 -0.556475 0.137654 0.031448 0.332061 3.558909 -8.516211 3.323388 -12.070366 42.190034 -9.022673 -180.0 75.749642 -0.0 180.0 75.749642 0.0 7.051593 4.103085 76.605942 -111.220393 62.462643 40.170256 -180.0 75.749642 -0.0 180.0 75.749642 0.0 -7.051593 4.103085 -76.605942 111.220393 62.462643 -40.170256
194.608 82.8662 -3.2570100000000006 0.0 -0.0 -0.0 -0.0 0.0 -0.0 -0.0 -0.0 0.0 1.115182 19.714459 -163.791626 6.835951 18.56806 162.479082 -0.0 -0.0 0.0 -0.0 -0.0 0.0 -9.651699 34.836178 11.199233 -166.44185 76.18368 176.38343 2.478205 13.533928 -33.225193 167.804043 -24.137814 142.616434 11.110121 -11.092107 -0.639674 16.87421 -41.21465 -22.193696 -140.164771 2.326489 115.87806 -162.366204 -37.19361 122.512785 -169.08961 -33.247392 145.374931 -7.498464 29.423615 9.420402 -80.614013 72.799777 98.881738 -79.094148 -71.975126 -96.531797 -2.474515 -6.077313 -2.303772 25.337568 75.689894 7.124388 155.417258 -2.951435 -161.718542 151.324109 9.118432 -161.077031 99.96532 73.300835 -84.487997 -58.204458 -68.040528 -44.253505 -6.463714 -6.452652 0.634888 7.540162 7.459131 -2.242398 151.679432 -17.764752 -121.237135 -71.913432 -65.248996 -12.064141 6.646794 17.108749 -4.326124 43.252695 58.973707 -34.180902 -0.004874 1.770919 -0.556328 164.31275 -64.076167 177.948627 41.391945 -46.839676 40.214593 -12.9787 41.948652 -10.613869 -180.0 75.749642 -0.0 -180.0 73.473292 -180.0 4.999056 -5.893439 124.389772 -33.211293 -47.608161 59.020956 -180.0 75.749642 -0.0 -180.0 73.473292 -180.0 7.301688 -7.016974 97.665964 151.543242 6.61991 -93.188661
194.971 82.7709 -3.5249200000000003 0.0 -0.0 -0.0 -0.0 0.0 -0.0 -0.0 -0.0 0.0 10.668068 4.762864 70.638715 -8.041234 8.487788 -70.485979 -0.0 -0.0 0.0 -0.0 -0.0 0.0 -9.651699 34.836178 11.199233 7.702052 27.978734 -2.26007 170.360859 70.664752 157.758354 174.528935 -4.913053 144.998644 -166.631339 -4.304864 89.77151 -171.302802 -10.037749 87.826445 -161.19603 -35.049303 122.707337 90.379872 -66.118561 27.430356 -36.036059 51.723116 29.832321 -175.005912 -41.014527 146.522084 0.000171 0.022644 0.007114 -164.841335 -64.148607 -178.686069 -2.474515 -6.077313 -2.303772 -149.818412 12.25328 -144.109278 155.61387 -4.23638 -161.991154 149.3582 15.260589 -160.015103 -73.072528 -68.587293 -52.636693 130.94653 70.414369 -109.540279 121.36458 30.329582 -71.957921 138.023053 -13.951675 -71.498825 138.493513 4.896353 -114.8648 55.379486 61.850815 -45.480307 82.840589 61.110826 -74.532293 -2.889619 1.796658 2.687549 -0.004673 0.918035 -0.288384 2.173143 21.526802 -2.971095 148.274132 22.510672 144.498746 145.294312 11.601578 141.263382 -180.0 75.749642 -0.0 -180.0 73.473292 -180.0 4.128173 -4.565677 138.175617 142.562047 -10.395149 -35.837866 -180.0 75.749642 -0.0 -180.0 73.473292 -180.0 -4.128173 -4.565677 -138.175617 -151.776467 -18.40289 37.197783
